<svg xmlns="http://www.w3.org/2000/svg" viewBox="0 0 800 500" width="800" height="500"><rect x="0" y="0" width="800" height="500" rx="0" fill="#f1ede5" stroke="none"/><ellipse cx="400" cy="442" rx="290" ry="15" fill="#e2dcd1"/><rect x="218" y="85" width="340" height="350" rx="9" fill="#d8d0c3" stroke="none"/><rect x="242" y="64" width="340" height="350" rx="9" fill="#fffdf9" stroke="#c8c0b4"/><rect x="282" y="105" width="205" height="13" rx="6.5" fill="#35332f" stroke="none"/><rect x="282" y="135" width="145" height="8" rx="4.0" fill="#d6cfc3" stroke="none"/><rect x="282" y="177" width="20" height="20" rx="3" fill="#eee9df" stroke="none"/><path d="M287 186 l5 5 8 -10" fill="none" stroke="#35332f" stroke-width="2.5"/><rect x="320" y="182" width="205" height="8" rx="4.0" fill="#d6cfc3" stroke="none"/><rect x="282" y="220" width="20" height="20" rx="3" fill="#eee9df" stroke="none"/><path d="M287 229 l5 5 8 -10" fill="none" stroke="#35332f" stroke-width="2.5"/><rect x="320" y="225" width="160" height="8" rx="4.0" fill="#d6cfc3" stroke="none"/><rect x="282" y="263" width="20" height="20" rx="3" fill="#eee9df" stroke="none"/><path d="M287 272 l5 5 8 -10" fill="none" stroke="#35332f" stroke-width="2.5"/><rect x="320" y="268" width="205" height="8" rx="4.0" fill="#d6cfc3" stroke="none"/><rect x="282" y="306" width="20" height="20" rx="3" fill="#eee9df" stroke="none"/><path d="M287 315 l5 5 8 -10" fill="none" stroke="#35332f" stroke-width="2.5"/><rect x="320" y="311" width="160" height="8" rx="4.0" fill="#d6cfc3" stroke="none"/><rect x="282" y="349" width="20" height="20" rx="3" fill="#eee9df" stroke="none"/><path d="M287 358 l5 5 8 -10" fill="none" stroke="#35332f" stroke-width="2.5"/><rect x="320" y="354" width="205" height="8" rx="4.0" fill="#d6cfc3" stroke="none"/></svg>