<svg xmlns="http://www.w3.org/2000/svg" viewBox="0 0 800 500" width="800" height="500"><rect x="0" y="0" width="800" height="500" rx="0" fill="#f1ede5" stroke="none"/><ellipse cx="400" cy="442" rx="290" ry="15" fill="#e2dcd1"/><rect x="100" y="70" width="600" height="340" rx="14" fill="#fffdf9" stroke="#c8c0b4"/><rect x="101" y="71" width="598" height="42" rx="13" fill="#e9e3d9" stroke="none"/><circle cx="125" cy="91" r="4" fill="#a79e90"/><circle cx="143" cy="91" r="4" fill="#a79e90"/><circle cx="161" cy="91" r="4" fill="#a79e90"/><rect x="250" y="85" width="290" height="12" rx="6.0" fill="#f8f5ef" stroke="none"/><rect x="140" y="145" width="225" height="12" rx="6.0" fill="#35332f" stroke="none"/><rect x="140" y="172" width="165" height="8" rx="4.0" fill="#d6cfc3" stroke="none"/><rect x="140" y="215" width="310" height="34" rx="5" fill="#f0ece5" stroke="none"/><circle cx="162" cy="232" r="9" fill="#35332f"/><path d="M157 232 l4 4 7 -8" fill="none" stroke="#fffdf9" stroke-width="2"/><rect x="184" y="228" width="170" height="8" rx="4.0" fill="#d6cfc3" stroke="none"/><rect x="140" y="262" width="310" height="34" rx="5" fill="#f0ece5" stroke="none"/><circle cx="162" cy="279" r="9" fill="#35332f"/><path d="M157 279 l4 4 7 -8" fill="none" stroke="#fffdf9" stroke-width="2"/><rect x="184" y="275" width="170" height="8" rx="4.0" fill="#d6cfc3" stroke="none"/><rect x="140" y="309" width="310" height="34" rx="5" fill="#f0ece5" stroke="none"/><circle cx="162" cy="326" r="9" fill="#35332f"/><path d="M157 326 l4 4 7 -8" fill="none" stroke="#fffdf9" stroke-width="2"/><rect x="184" y="322" width="170" height="8" rx="4.0" fill="#d6cfc3" stroke="none"/><circle cx="565" cy="270" r="70" fill="#eee9df"/><circle cx="565" cy="270" r="53" fill="#fffdf9" stroke="#35332f" stroke-width="8"/><path d="M538 270 l18 18 36 -38" fill="none" stroke="#35332f" stroke-width="7" stroke-linecap="round"/></svg>